# xmcd CD Database Entry
#
# Track frame offsets:
# 150
# 28309
# 57430
# 80206
# 96448
# 115002
# 139497
# 155266
# 176738
# 199390
# 227029
# 248800
# 267825
# 288825
# 302423
#
# Disc length: 4273 seconds
#
# Revision: 4
# Processed by: cddbd v1.4b41PL1 Copyright (c) Steve Scherf et al.
# Submitted via: tcd 2.0b
#
DISCID=da10af0f
DTITLE=Various Artist - "Baladas Heavy" de la Emision Pirata (Disco
DTITLE=1)
DYEAR=1900
DGENRE=
TTITLE0=I need you Tonight - ZZ Top
TTITLE1=Still Loving you - Scorpions
TTITLE2=Little Angel - Bad Company
TTITLE3=I Won't forget you - Poison
TTITLE4=El Silencio de la Noche - Sangre Azul
TTITLE5=Till Death do us part - White Lion
TTITLE6=To be with you - Mr. Big
TTITLE7=Pensando en ti - Angeles del Infierno
TTITLE8=Walk Away - Dokken
TTITLE9=I'm my own enemy - Yngwie Malmsteen
TTITLE10=Waiting for a girl like you - Foreigner
TTITLE11=Show me the way - Badlands
TTITLE12=Where you going now . Damn Yankees
TTITLE13=You keep me hangin' on - Vanilla Fudges
TTITLE14=Planet Caravan - Pantera
EXTD=
EXTT0=
EXTT1=
EXTT2=
EXTT3=
EXTT4=
EXTT5=
EXTT6=
EXTT7=
EXTT8=
EXTT9=
EXTT10=
EXTT11=
EXTT12=
EXTT13=
EXTT14=
PLAYORDER=
